<mxfile host="app.diagrams.net" modified="2023-12-31T04:46:58.697Z" agent="Mozilla/5.0 (Windows NT 10.0; Win64; x64) AppleWebKit/537.36 (KHTML, like Gecko) Chrome/119.0.0.0 Safari/537.36" version="22.1.16" etag="FIi3x5tYX11IX1ZLn0qq" type="github">
  <diagram name="第 1 页" id="OUFlU5zJqbt87FYrlzPa">
    <mxGraphModel>
      <root>
        <mxCell id="0" />
        <mxCell id="1" parent="0" />
      </root>
    </mxGraphModel>
  </diagram>
</mxfile>
